:SAMPLES-PER-SECOND 30
:FRAME-RANGE 1-4244
:FULLY-SPECIFIED
:DEGREES
398
root  30.351 35.9785 15.5611 13.5399 -65.6331 0.570236
RightUpLeg  -38.217 -17.7339 -15.7834
RightLeg  25.6215 5.80216 2.80137
RightFoot  0.493484 -2.26921 21.6848
RightToes  -3.31784e-009 0 -3.6325e-017
Spine  25.9295 2.08249 12.1379
Spine1  -3.07714 4.37606 0.106149
HEad  7.70514 3.60664 -13.4882
LeftShoulder1  0.0335112 -1.87583 8.94346
LeftArm  33.145 -65.9407 -58.0776
LeftForeArm  31.6655 -30.556 -4.90774
LeftHand  -0.0429765 4.92241 5.33901
RightShoulder  4.29209 38.9429 1.6053
RightArm  -6.37276 31.3696 6.97546
RightForeArm  -14.4568 39.4984 10.0718
RightHand  3.04115 5.64009 30.8274
LeftUpLeg  -43.8392 8.59781 10.5531
LeftLeg  39.6956 -1.41531 -0.88172
LeftFoot  -7.23224 0.513488 -13.064
LeftToes  1.0277e-010 -6.71454e-011 3.04227e-011
399
root  30.4205 36.0277 15.5311 11.5421 -64.2315 2.71356
RightUpLeg  -37.515 -18.558 -16.997
RightLeg  25.5471 4.80115 2.27312
RightFoot  0.264287 -2.25484 21.9544
RightToes  -3.31784e-009 0 -3.6325e-017
Spine  26.0594 2.26144 12.0823
Spine1  -3.64763 4.26555 2.14386
HEad  9.5598 2.78867 -14.5111
LeftShoulder1  -0.0272088 -1.09721 10.335
LeftArm  31.3508 -66.9521 -58.2371
LeftForeArm  31.0292 -31.678 -5.20645
LeftHand  -0.0246935 5.37988 4.70234
RightShoulder  4.4521 34.2191 3.57193
RightArm  -15.979 28.6564 3.02634
RightForeArm  -14.9208 44.212 11.8296
RightHand  2.90845 4.98894 31.3422
LeftUpLeg  -43.8002 7.52203 9.52273
LeftLeg  38.7272 -1.87984 -1.24296
LeftFoot  -6.80462 0.526284 -12.2233
LeftToes  1.0277e-010 -6.71454e-011 3.04227e-011
400
root  30.4571 36.1028 15.5818 9.89211 -62.2707 4.67169
RightUpLeg  -36.3811 -20.1503 -18.292
RightLeg  25.168 4.0784 1.86465
RightFoot  -0.46294 -2.21778 22.9692
RightToes  -3.31784e-009 0 -3.6325e-017
Spine  25.5584 2.30245 12.0031
Spine1  -4.60037 3.88696 4.53897
HEad  11.1427 2.24752 -15.7935
LeftShoulder1  -0.0474751 -0.724296 10.9438
LeftArm  30.1462 -67.1087 -57.6944
LeftForeArm  30.7593 -32.5056 -5.42063
LeftHand  0.0196852 6.55211 4.9164
RightShoulder  4.25613 28.639 5.27482
RightArm  -30.0965 25.862 -1.57122
RightForeArm  -15.7185 48.8901 13.948
RightHand  2.63323 3.92154 31.6769
LeftUpLeg  -43.9389 6.26663 8.2775
LeftLeg  37.7133 -2.50368 -1.70741
LeftFoot  -6.37269 0.539768 -11.5328
LeftToes  1.0277e-010 -6.71454e-011 3.04227e-011
401
root  30.4446 36.253 15.6611 7.39796 -60.398 7.4323
RightUpLeg  -34.6625 -21.5166 -20.2917
RightLeg  24.3161 3.54584 1.5286
RightFoot  -1.23839 -2.1761 24.1828
RightToes  -3.31784e-009 0 -3.6325e-017
Spine  25.2026 2.35758 11.2268
Spine1  -6.06985 3.52823 6.54127
HEad  12.5143 1.54835 -16.4323
LeftShoulder1  -0.0439688 -0.750884 10.8414
LeftArm  32.8682 -67.3108 -58.8001
LeftForeArm  32.5485 -32.0757 -5.21763
LeftHand  0.0878051 8.07189 5.35068
RightShoulder  4.02402 23.5512 7.1764
RightArm  -45.998 22.5699 -6.26001
RightForeArm  -14.7379 51.6076 15.3065
RightHand  2.69439 3.97372 32.2039
LeftUpLeg  -43.2767 5.55712 6.32591
LeftLeg  36.0094 -3.64819 -2.48305
LeftFoot  -6.06579 0.558381 -11.3049
LeftToes  1.0277e-010 -6.71454e-011 3.04227e-011
402
root  30.4134 36.4697 15.7498 4.93816 -59.2234 9.75276
RightUpLeg  -32.5978 -21.8319 -22.23
RightLeg  23.0149 2.95747 1.15861
RightFoot  -1.64315 -2.10533 24.3374
RightToes  -3.31784e-009 0 -3.6325e-017
Spine  25.0094 2.37834 10.3764
Spine1  -7.04382 3.25972 7.72936
HEad  12.8579 0.59606 -16.6048
LeftShoulder1  -0.0513102 -0.81368 11.019
LeftArm  35.0193 -67.4602 -60.1405
LeftForeArm  31.7235 -31.358 -5.09232
LeftHand  0.109761 8.41028 5.63453
RightShoulder  3.67988 19.4341 8.53561
RightArm  -61.0729 18.9879 -9.88409
RightForeArm  -12.6052 53.3422 16.1725
RightHand  2.57128 3.51892 32.3269
LeftUpLeg  -41.79 5.6753 4.45647
LeftLeg  34.0129 -4.75036 -3.08838
LeftFoot  -5.8308 0.600173 -11.7151
LeftToes  1.0277e-010 -6.71454e-011 3.04227e-011
403
root  30.3858 36.6676 15.8985 3.32686 -58.5759 11.0863
RightUpLeg  -30.5595 -21.7174 -23.6695
RightLeg  21.4257 2.25158 0.758007
RightFoot  -2.22305 -2.02465 24.8302
RightToes  -3.31784e-009 0 -3.6325e-017
Spine  24.4177 1.91002 9.98266
Spine1  -7.64321 2.6348 8.35819
HEad  13.1899 1.44468 -16.8792
LeftShoulder1  -0.0269098 -1.10746 10.3261
LeftArm  34.3044 -66.0596 -57.9961
LeftForeArm  29.1965 -31.6802 -5.3087
LeftHand  0.124238 8.76093 5.60123
RightShoulder  3.17519 16.7554 8.14945
RightArm  -68.2701 16.8814 -10.4222
RightForeArm  -10.7976 55.0977 17.1614
RightHand  2.84714 3.98295 33.9067
LeftUpLeg  -40.3347 5.17123 3.36542
LeftLeg  32.348 -5.00435 -3.05996
LeftFoot  -5.07314 0.639213 -11.0938
LeftToes  1.0277e-010 -6.71454e-011 3.04227e-011
404
root  30.3368 36.8511 16.1014 1.90154 -58.6685 12.2419
RightUpLeg  -28.9389 -21.5051 -24.755
RightLeg  19.9372 1.53215 0.4021
RightFoot  -3.03452 -1.84907 24.8075
RightToes  -3.31784e-009 0 -3.6325e-017
Spine  23.3086 1.4367 9.23761
Spine1  -7.933 1.78589 9.32431
HEad  13.8064 3.09555 -16.9411
LeftShoulder1  0.0035059 -1.70858 9.58034
LeftArm  34.4992 -63.5414 -55.6521
LeftForeArm  25.8924 -32.0687 -5.58854
LeftHand  0.0879054 8.03254 5.42217
RightShoulder  3.17822 16.7582 8.16374
RightArm  -66.5205 17.6226 -9.74607
RightForeArm  -8.63951 58.4999 19.5154
RightHand  2.72491 3.60745 33.8353
LeftUpLeg  -38.8214 4.62095 2.61375
LeftLeg  30.8623 -4.61118 -2.62562
LeftFoot  -4.18021 0.683269 -10.4981
LeftToes  1.0277e-010 -6.71454e-011 3.04227e-011
405
root  30.296 37.0237 16.2905 0.196793 -60.0692 13.2785
RightUpLeg  -27.6829 -20.9174 -25.2632
RightLeg  18.3606 0.832883 0.0129214
RightFoot  -3.9044 -1.65833 24.7378
RightToes  -3.31784e-009 0 -3.6325e-017
Spine  22.3566 1.33423 8.5955
Spine1  -6.96186 1.37731 9.63621
HEad  13.6623 4.58349 -16.3534
LeftShoulder1  0.0145364 -2.11467 9.36091
LeftArm  35.2504 -61.3527 -55.0236
LeftForeArm  21.9815 -31.6758 -5.71508
LeftHand  0.0363632 6.80774 5.43603
RightShoulder  3.68869 18.8024 9.09397
RightArm  -59.3598 21.6694 -8.48587
RightForeArm  -4.7981 61.5473 21.9604
RightHand  2.51917 3.14022 33.0695
LeftUpLeg  -36.9903 5.0556 2.18636
LeftLeg  29.9049 -3.78134 -2.00603
LeftFoot  -4.05263 0.702039 -10.6193
LeftToes  1.0277e-010 -6.71454e-011 3.04227e-011
406
root  30.3212 37.1338 16.445 -1.60503 -62.5484 14.0415
RightUpLeg  -27.0811 -20.4372 -25.02
RightLeg  17.1643 -0.41928 -0.619376
RightFoot  -4.08428 -1.55774 23.7972
RightToes  -3.31784e-009 0 -3.6325e-017
Spine  22.4327 1.65495 9.0107
Spine1  -5.97232 1.83964 8.7931
HEad  13.1905 5.43317 -15.3631
LeftShoulder1  0.0860855 -2.66889 8.05882
LeftArm  35.8977 -59.4856 -54.4084
LeftForeArm  17.4881 -32.1885 -6.10016
LeftHand  -0.0180305 5.51256 5.59412
RightShoulder  4.64453 24.0344 9.3885
RightArm  -48.2802 24.4971 -5.78764
RightForeArm  -4.33967 62.7974 23.2541
RightHand  2.43522 2.81612 33.2482
LeftUpLeg  -35.1482 6.23565 2.23534
LeftLeg  29.6875 -2.89018 -1.43839
LeftFoot  -4.05596 0.66779 -10.0894
LeftToes  1.0277e-010 -6.71454e-011 3.04227e-011
407
root  30.4113 37.1522 16.5702 -3.78038 -64.9166 15.5127
RightUpLeg  -27.1817 -21.32 -24.6977
RightLeg  16.3678 -1.77249 -1.14663
RightFoot  -3.28765 -1.65974 22.965
RightToes  -3.31784e-009 0 -3.6325e-017
Spine  22.7385 1.81553 10.5573
Spine1  -4.65626 2.66444 5.94282
HEad  12.2733 5.10108 -14.0753
LeftShoulder1  0.15802 -2.97445 6.86154
LeftArm  36.9763 -58.4986 -54.0846
LeftForeArm  11.7975 -32.9156 -6.61577
LeftHand  -0.142458 2.95019 6.23011
RightShoulder  5.49815 29.6492 8.97157
RightArm  -36.3405 26.8532 -1.1814
RightForeArm  -5.54004 60.7773 21.2685
RightHand  2.23294 2.3305 32.4882
LeftUpLeg  -34.0448 7.61576 1.94406
LeftLeg  29.9716 -2.05739 -0.93889
LeftFoot  -4.09787 0.64882 -9.84587
LeftToes  1.0277e-010 -6.71454e-011 3.04227e-011
408
root  30.5212 37.1101 16.5843 -5.40417 -66.808 16.7687
RightUpLeg  -27.729 -22.6107 -24.0849
RightLeg  15.7005 -1.95379 -1.07753
RightFoot  -1.90829 -1.93225 22.9707
RightToes  -3.31784e-009 0 -3.6325e-017
Spine  23.2771 2.1946 12.0573
Spine1  -2.9561 3.81552 3.22362
HEad  10.4948 3.84493 -13.1654
LeftShoulder1  0.211764 -3.17594 6.02397
LeftArm  38.9326 -58.2857 -54.4876
LeftForeArm  8.37657 -33.2617 -6.90511
LeftHand  -0.214825 1.386 6.10611
RightShoulder  6.06381 34.7922 8.02497
RightArm  -27.1774 28.6928 2.86464
RightForeArm  -7.08959 55.2207 16.9589
RightHand  2.55006 3.90741 30.7634
LeftUpLeg  -33.759 9.52127 1.67023
LeftLeg  30.5971 -1.83105 -0.824038
LeftFoot  -4.56931 0.643182 -10.3879
LeftToes  1.0277e-010 -6.71454e-011 3.04227e-011
409
root  30.6378 36.997 16.4965 -5.90175 -67.358 17.4543
RightUpLeg  -28.5107 -24.3905 -23.5463
RightLeg  15.2123 -0.947495 -0.489493
RightFoot  0.355715 -2.48559 23.9615
RightToes  -3.31784e-009 0 -3.6325e-017
Spine  24.1417 2.4257 13.1077
Spine1  -1.83327 4.78631 1.01047
HEad  8.54562 2.33646 -12.5768
LeftShoulder1  0.224709 -3.3397 5.8941
LeftArm  41.325 -58.3993 -56.4157
LeftForeArm  7.52367 -33.1996 -6.93803
LeftHand  -0.24026 1.20263 6.57403
RightShoulder  6.44763 38.6346 7.33803
RightArm  -23.0695 29.2112 4.84398
RightForeArm  -8.09325 49.5248 13.7652
RightHand  2.67664 4.78869 29.4928
LeftUpLeg  -34.458 10.9098 1.30695
LeftLeg  31.2666 -2.6247 -1.37207
LeftFoot  -4.50013 0.618384 -9.87763
LeftToes  1.0277e-010 -6.71454e-011 3.04227e-011
